<svg width="40" height="40" viewBox="0 0 40 40" fill="none" xmlns="http://www.w3.org/2000/svg">
<g clip-path="url(#clip0)">
<path d="M39.9018 37.3864L38.2043 31.3961C37.8696 30.2157 37.9304 28.9531 38.4111 27.8244C39.5246 25.2111 40.0965 22.3149 39.987 19.2726C39.6098 8.70975 30.9271 0.19135 20.3612 0.00272783C9.02871 -0.198063 -0.198551 9.0292 0.00223955 20.3617C0.190861 30.9276 8.70927 39.6103 19.269 39.9875C21.928 40.0818 24.4744 39.6559 26.82 38.8041C28.688 38.1256 30.7172 38.01 32.6277 38.5546L37.3798 39.9054C38.9161 40.3435 40.3369 38.9227 39.9018 37.3864ZM11.064 19.9997C11.064 15.0651 15.0646 11.0645 19.9992 11.0645C24.9338 11.0645 28.9344 15.0651 28.9344 19.9997C28.9344 24.9343 24.9338 28.9349 19.9992 28.9349C15.0646 28.9349 11.064 24.9343 11.064 19.9997Z" fill="url(#paint0_linear)"/>
<path d="M37.8907 29.0203C37.8907 29.0203 37.8208 28.7982 37.6838 28.4027C36.619 25.3848 31.4411 12.3181 21.2038 11.1499C25.5695 11.7371 28.9342 15.476 28.9342 19.9999C28.9342 24.9345 24.9336 28.9351 19.999 28.9351V39.9969C22.3933 39.9969 24.6902 39.5801 26.8198 38.8073C28.6878 38.1289 30.717 38.0133 32.6276 38.5579L37.3796 39.9086C38.916 40.3437 40.3367 38.926 39.9017 37.3866L38.2041 31.3963C38.0033 30.6936 37.9485 29.9573 38.0368 29.2424L37.8907 29.0203Z" fill="url(#paint1_linear)"/>
</g>
<defs>
<linearGradient id="paint0_linear" x1="4.85125" y1="-0.000474682" x2="40.3748" y2="2.96995" gradientUnits="userSpaceOnUse">
<stop stop-color="#DF5950"/>
<stop offset="1" stop-color="#451046"/>
</linearGradient>
<linearGradient id="paint1_linear" x1="22.4229" y1="11.1499" x2="40.2326" y2="12.1815" gradientUnits="userSpaceOnUse">
<stop stop-color="#DF5950"/>
<stop offset="1" stop-color="#451046"/>
</linearGradient>
<clipPath id="clip0">
<rect width="40" height="40" fill="white"/>
</clipPath>
</defs>
</svg>
